<mxfile host="app.diagrams.net" modified="2023-10-31T16:11:55.701Z" agent="Mozilla/5.0 (Windows NT 10.0; Win64; x64) AppleWebKit/537.36 (KHTML, like Gecko) Chrome/118.0.0.0 Safari/537.36" etag="_Iv54IOyOrl-2IftB6X_" version="22.0.8" type="github">
  <diagram name="Trang-1" id="CbWZottKJksRMsXl4OTU">
    <mxGraphModel dx="983" dy="425" grid="1" gridSize="10" guides="1" tooltips="1" connect="1" arrows="1" fold="1" page="1" pageScale="1" pageWidth="1200" pageHeight="1920" math="0" shadow="0">
      <root>
        <mxCell id="0" />
        <mxCell id="1" parent="0" />
        <mxCell id="X-_IwXTnalUpg8y82jki-1" value="File Main.tsx" style="rounded=0;whiteSpace=wrap;html=1;" vertex="1" parent="1">
          <mxGeometry x="50" y="330" width="120" height="60" as="geometry" />
        </mxCell>
        <mxCell id="X-_IwXTnalUpg8y82jki-2" value="" style="endArrow=classic;html=1;rounded=0;exitX=1;exitY=0.5;exitDx=0;exitDy=0;entryX=0;entryY=0.5;entryDx=0;entryDy=0;" edge="1" parent="1" source="X-_IwXTnalUpg8y82jki-1" target="X-_IwXTnalUpg8y82jki-3">
          <mxGeometry width="50" height="50" relative="1" as="geometry">
            <mxPoint x="480" y="410" as="sourcePoint" />
            <mxPoint x="210" y="320" as="targetPoint" />
          </mxGeometry>
        </mxCell>
        <mxCell id="X-_IwXTnalUpg8y82jki-3" value="File App.tsx" style="ellipse;whiteSpace=wrap;html=1;" vertex="1" parent="1">
          <mxGeometry x="260" y="295" width="80" height="50" as="geometry" />
        </mxCell>
        <mxCell id="X-_IwXTnalUpg8y82jki-4" value="" style="endArrow=classic;html=1;rounded=0;entryX=0;entryY=0.5;entryDx=0;entryDy=0;exitX=1;exitY=0.5;exitDx=0;exitDy=0;" edge="1" parent="1" source="X-_IwXTnalUpg8y82jki-3" target="X-_IwXTnalUpg8y82jki-6">
          <mxGeometry width="50" height="50" relative="1" as="geometry">
            <mxPoint x="370" y="280" as="sourcePoint" />
            <mxPoint x="480" y="280" as="targetPoint" />
          </mxGeometry>
        </mxCell>
        <mxCell id="X-_IwXTnalUpg8y82jki-28" value="Folder Routes" style="edgeLabel;html=1;align=center;verticalAlign=middle;resizable=0;points=[];" vertex="1" connectable="0" parent="X-_IwXTnalUpg8y82jki-4">
          <mxGeometry x="-0.42" y="-1" relative="1" as="geometry">
            <mxPoint x="15" y="-5" as="offset" />
          </mxGeometry>
        </mxCell>
        <mxCell id="X-_IwXTnalUpg8y82jki-6" value="File index.tsx" style="ellipse;whiteSpace=wrap;html=1;" vertex="1" parent="1">
          <mxGeometry x="440" y="290" width="80" height="60" as="geometry" />
        </mxCell>
        <mxCell id="X-_IwXTnalUpg8y82jki-7" value="" style="endArrow=classic;html=1;rounded=0;exitX=1;exitY=0.5;exitDx=0;exitDy=0;entryX=0;entryY=0.5;entryDx=0;entryDy=0;" edge="1" parent="1" source="X-_IwXTnalUpg8y82jki-6" target="X-_IwXTnalUpg8y82jki-8">
          <mxGeometry width="50" height="50" relative="1" as="geometry">
            <mxPoint x="560" y="310" as="sourcePoint" />
            <mxPoint x="600" y="310" as="targetPoint" />
          </mxGeometry>
        </mxCell>
        <mxCell id="X-_IwXTnalUpg8y82jki-24" value="Folder Pages" style="edgeLabel;html=1;align=center;verticalAlign=middle;resizable=0;points=[];" vertex="1" connectable="0" parent="X-_IwXTnalUpg8y82jki-7">
          <mxGeometry x="-0.4693" y="1" relative="1" as="geometry">
            <mxPoint x="16" y="1" as="offset" />
          </mxGeometry>
        </mxCell>
        <mxCell id="X-_IwXTnalUpg8y82jki-8" value="CURD" style="ellipse;whiteSpace=wrap;html=1;" vertex="1" parent="1">
          <mxGeometry x="620" y="285" width="70" height="60" as="geometry" />
        </mxCell>
        <mxCell id="X-_IwXTnalUpg8y82jki-15" value="" style="endArrow=classic;html=1;rounded=0;entryX=1;entryY=0.5;entryDx=0;entryDy=0;exitX=0;exitY=0.5;exitDx=0;exitDy=0;" edge="1" parent="1" source="X-_IwXTnalUpg8y82jki-17" target="X-_IwXTnalUpg8y82jki-8">
          <mxGeometry width="50" height="50" relative="1" as="geometry">
            <mxPoint x="830" y="280" as="sourcePoint" />
            <mxPoint x="770" y="360" as="targetPoint" />
          </mxGeometry>
        </mxCell>
        <mxCell id="X-_IwXTnalUpg8y82jki-23" value="Folder Services" style="edgeLabel;html=1;align=center;verticalAlign=middle;resizable=0;points=[];" vertex="1" connectable="0" parent="X-_IwXTnalUpg8y82jki-15">
          <mxGeometry x="0.3219" y="-3" relative="1" as="geometry">
            <mxPoint x="17" y="-6" as="offset" />
          </mxGeometry>
        </mxCell>
        <mxCell id="X-_IwXTnalUpg8y82jki-17" value="Services&lt;br&gt;(banner.service.tsx)" style="shape=parallelogram;perimeter=parallelogramPerimeter;whiteSpace=wrap;html=1;fixedSize=1;" vertex="1" parent="1">
          <mxGeometry x="800" y="270" width="140" height="50" as="geometry" />
        </mxCell>
        <mxCell id="X-_IwXTnalUpg8y82jki-20" value="" style="endArrow=classic;html=1;rounded=0;entryX=0.75;entryY=0;entryDx=0;entryDy=0;exitX=0.16;exitY=0.55;exitDx=0;exitDy=0;exitPerimeter=0;" edge="1" parent="1" source="X-_IwXTnalUpg8y82jki-22" target="X-_IwXTnalUpg8y82jki-17">
          <mxGeometry width="50" height="50" relative="1" as="geometry">
            <mxPoint x="1020" y="273" as="sourcePoint" />
            <mxPoint x="990" y="320" as="targetPoint" />
          </mxGeometry>
        </mxCell>
        <mxCell id="X-_IwXTnalUpg8y82jki-22" value="&lt;font style=&quot;font-size: 8px;&quot;&gt;bannerService.fetchAllBanners()&lt;br&gt;(Lấy dữ tất cả dữ liệu banner)&lt;br&gt;&lt;/font&gt;" style="ellipse;shape=cloud;whiteSpace=wrap;html=1;" vertex="1" parent="1">
          <mxGeometry x="780" y="110" width="180" height="70" as="geometry" />
        </mxCell>
        <mxCell id="X-_IwXTnalUpg8y82jki-30" value="&lt;font style=&quot;font-size: 8px;&quot;&gt;bannerService.fetchDeleteBanner(data)&lt;br&gt;(Xóa dữ liệu banner phải cần [_id])&lt;br&gt;&lt;/font&gt;" style="ellipse;shape=cloud;whiteSpace=wrap;html=1;" vertex="1" parent="1">
          <mxGeometry x="960" y="180" width="230" height="85" as="geometry" />
        </mxCell>
        <mxCell id="X-_IwXTnalUpg8y82jki-31" value="" style="endArrow=classic;html=1;rounded=0;entryX=1;entryY=0.5;entryDx=0;entryDy=0;exitX=0.16;exitY=0.55;exitDx=0;exitDy=0;exitPerimeter=0;" edge="1" parent="1" source="X-_IwXTnalUpg8y82jki-30" target="X-_IwXTnalUpg8y82jki-17">
          <mxGeometry width="50" height="50" relative="1" as="geometry">
            <mxPoint x="540" y="410" as="sourcePoint" />
            <mxPoint x="590" y="360" as="targetPoint" />
          </mxGeometry>
        </mxCell>
        <mxCell id="X-_IwXTnalUpg8y82jki-33" value="&lt;font style=&quot;font-size: 8px;&quot;&gt;bannerService.fetchPostBanner(data)&lt;br&gt;(Thêm dữ liệu banner phải cần dữ liệu [data])&lt;br&gt;&lt;/font&gt;" style="ellipse;shape=cloud;whiteSpace=wrap;html=1;" vertex="1" parent="1">
          <mxGeometry x="880" y="317.5" width="260" height="85" as="geometry" />
        </mxCell>
        <mxCell id="X-_IwXTnalUpg8y82jki-34" value="" style="endArrow=classic;html=1;rounded=0;entryX=0.5;entryY=1;entryDx=0;entryDy=0;exitX=0.07;exitY=0.4;exitDx=0;exitDy=0;exitPerimeter=0;" edge="1" parent="1" source="X-_IwXTnalUpg8y82jki-33" target="X-_IwXTnalUpg8y82jki-17">
          <mxGeometry width="50" height="50" relative="1" as="geometry">
            <mxPoint x="957" y="292" as="sourcePoint" />
            <mxPoint x="880" y="305" as="targetPoint" />
          </mxGeometry>
        </mxCell>
        <mxCell id="X-_IwXTnalUpg8y82jki-35" value="&lt;font style=&quot;font-size: 8px;&quot;&gt;&amp;nbsp;bannerService.fetchUpdateBanner(isDataEdit._id, data)&lt;br&gt;(Cập nhật dữ liệu banner phải cần dữ liệu [id , data])&lt;br&gt;&lt;/font&gt;" style="ellipse;shape=cloud;whiteSpace=wrap;html=1;" vertex="1" parent="1">
          <mxGeometry x="790" y="445" width="260" height="85" as="geometry" />
        </mxCell>
        <mxCell id="X-_IwXTnalUpg8y82jki-36" value="" style="endArrow=classic;html=1;rounded=0;entryX=0.25;entryY=1;entryDx=0;entryDy=0;exitX=0.4;exitY=0.1;exitDx=0;exitDy=0;exitPerimeter=0;" edge="1" parent="1" source="X-_IwXTnalUpg8y82jki-35" target="X-_IwXTnalUpg8y82jki-17">
          <mxGeometry width="50" height="50" relative="1" as="geometry">
            <mxPoint x="848" y="437" as="sourcePoint" />
            <mxPoint x="811" y="340" as="targetPoint" />
          </mxGeometry>
        </mxCell>
        <mxCell id="X-_IwXTnalUpg8y82jki-38" value="" style="endArrow=classic;html=1;rounded=0;exitX=0.96;exitY=0.7;exitDx=0;exitDy=0;exitPerimeter=0;entryX=0;entryY=0.5;entryDx=0;entryDy=0;" edge="1" parent="1" source="X-_IwXTnalUpg8y82jki-33" target="X-_IwXTnalUpg8y82jki-44">
          <mxGeometry width="50" height="50" relative="1" as="geometry">
            <mxPoint x="1140" y="335" as="sourcePoint" />
            <mxPoint x="1210" y="377" as="targetPoint" />
          </mxGeometry>
        </mxCell>
        <mxCell id="X-_IwXTnalUpg8y82jki-45" value="Upload Ảnh" style="edgeLabel;html=1;align=center;verticalAlign=middle;resizable=0;points=[];" vertex="1" connectable="0" parent="X-_IwXTnalUpg8y82jki-38">
          <mxGeometry x="-0.244" y="2" relative="1" as="geometry">
            <mxPoint x="62" y="-5" as="offset" />
          </mxGeometry>
        </mxCell>
        <mxCell id="X-_IwXTnalUpg8y82jki-64" value="&lt;b&gt;Bước 1&lt;/b&gt;" style="edgeLabel;html=1;align=center;verticalAlign=middle;resizable=0;points=[];" vertex="1" connectable="0" parent="X-_IwXTnalUpg8y82jki-38">
          <mxGeometry x="-0.5201" y="-1" relative="1" as="geometry">
            <mxPoint x="14" y="-4" as="offset" />
          </mxGeometry>
        </mxCell>
        <mxCell id="X-_IwXTnalUpg8y82jki-44" value="Folder Utils&lt;br&gt;(custom.env.ts)" style="rhombus;whiteSpace=wrap;html=1;" vertex="1" parent="1">
          <mxGeometry x="1320" y="320" width="130" height="80" as="geometry" />
        </mxCell>
        <mxCell id="X-_IwXTnalUpg8y82jki-46" value="" style="endArrow=classic;html=1;rounded=0;exitX=1;exitY=0;exitDx=0;exitDy=0;entryX=0.5;entryY=1;entryDx=0;entryDy=0;" edge="1" parent="1" source="X-_IwXTnalUpg8y82jki-44" target="X-_IwXTnalUpg8y82jki-52">
          <mxGeometry width="50" height="50" relative="1" as="geometry">
            <mxPoint x="1160" y="340" as="sourcePoint" />
            <mxPoint x="1500" y="360" as="targetPoint" />
          </mxGeometry>
        </mxCell>
        <mxCell id="X-_IwXTnalUpg8y82jki-49" value="Trả về mã hóa của ảnh&lt;br&gt;(base64)" style="edgeLabel;html=1;align=center;verticalAlign=middle;resizable=0;points=[];" vertex="1" connectable="0" parent="X-_IwXTnalUpg8y82jki-46">
          <mxGeometry x="0.0008" y="-5" relative="1" as="geometry">
            <mxPoint x="-17" y="-15" as="offset" />
          </mxGeometry>
        </mxCell>
        <mxCell id="X-_IwXTnalUpg8y82jki-65" value="&lt;b&gt;Bước 2&lt;/b&gt;" style="edgeLabel;html=1;align=center;verticalAlign=middle;resizable=0;points=[];" vertex="1" connectable="0" parent="X-_IwXTnalUpg8y82jki-46">
          <mxGeometry x="-0.3197" relative="1" as="geometry">
            <mxPoint y="-4" as="offset" />
          </mxGeometry>
        </mxCell>
        <mxCell id="X-_IwXTnalUpg8y82jki-52" value="&lt;font style=&quot;font-size: 9px;&quot;&gt;Gửi Mã Hóa Ảnh Cho Server &lt;br&gt;Và Server Trả Về Url&lt;br&gt;&lt;br&gt;&lt;/font&gt;" style="shape=step;perimeter=stepPerimeter;whiteSpace=wrap;html=1;fixedSize=1;size=10;" vertex="1" parent="1">
          <mxGeometry x="1250" y="160" width="140" height="80" as="geometry" />
        </mxCell>
        <mxCell id="X-_IwXTnalUpg8y82jki-56" value="&lt;font style=&quot;font-size: 9px;&quot;&gt;Gửi Dữ Liệu Thêm Cho Server Và Nhân Thông Báo&lt;/font&gt;" style="shape=tape;whiteSpace=wrap;html=1;" vertex="1" parent="1">
          <mxGeometry x="1340" y="430" width="150" height="135" as="geometry" />
        </mxCell>
        <mxCell id="X-_IwXTnalUpg8y82jki-60" value="" style="endArrow=classic;html=1;rounded=0;exitX=0.25;exitY=1;exitDx=0;exitDy=0;entryX=0.96;entryY=0.7;entryDx=0;entryDy=0;entryPerimeter=0;" edge="1" parent="1" source="X-_IwXTnalUpg8y82jki-52" target="X-_IwXTnalUpg8y82jki-33">
          <mxGeometry width="50" height="50" relative="1" as="geometry">
            <mxPoint x="1190" y="300" as="sourcePoint" />
            <mxPoint x="1240" y="250" as="targetPoint" />
          </mxGeometry>
        </mxCell>
        <mxCell id="X-_IwXTnalUpg8y82jki-63" value="Trả Về Lại URL Ảnh" style="edgeLabel;html=1;align=center;verticalAlign=middle;resizable=0;points=[];" vertex="1" connectable="0" parent="X-_IwXTnalUpg8y82jki-60">
          <mxGeometry x="-0.0679" y="-1" relative="1" as="geometry">
            <mxPoint as="offset" />
          </mxGeometry>
        </mxCell>
        <mxCell id="X-_IwXTnalUpg8y82jki-66" value="&lt;b&gt;Bước 3&lt;/b&gt;" style="edgeLabel;html=1;align=center;verticalAlign=middle;resizable=0;points=[];" vertex="1" connectable="0" parent="X-_IwXTnalUpg8y82jki-60">
          <mxGeometry x="-0.3374" y="-2" relative="1" as="geometry">
            <mxPoint x="18" y="-14" as="offset" />
          </mxGeometry>
        </mxCell>
        <mxCell id="X-_IwXTnalUpg8y82jki-61" value="" style="endArrow=classic;html=1;rounded=0;exitX=0.96;exitY=0.7;exitDx=0;exitDy=0;exitPerimeter=0;entryX=0;entryY=0.5;entryDx=0;entryDy=0;entryPerimeter=0;" edge="1" parent="1" source="X-_IwXTnalUpg8y82jki-33" target="X-_IwXTnalUpg8y82jki-56">
          <mxGeometry width="50" height="50" relative="1" as="geometry">
            <mxPoint x="1240" y="390" as="sourcePoint" />
            <mxPoint x="1290" y="340" as="targetPoint" />
          </mxGeometry>
        </mxCell>
        <mxCell id="X-_IwXTnalUpg8y82jki-62" value="Gửi Url Và Dữ Liệu Thêm" style="edgeLabel;html=1;align=center;verticalAlign=middle;resizable=0;points=[];" vertex="1" connectable="0" parent="X-_IwXTnalUpg8y82jki-61">
          <mxGeometry x="0.0183" y="-3" relative="1" as="geometry">
            <mxPoint x="11" y="9" as="offset" />
          </mxGeometry>
        </mxCell>
        <mxCell id="X-_IwXTnalUpg8y82jki-67" value="&lt;b&gt;Bước 4&lt;/b&gt;" style="edgeLabel;html=1;align=center;verticalAlign=middle;resizable=0;points=[];" vertex="1" connectable="0" parent="X-_IwXTnalUpg8y82jki-61">
          <mxGeometry x="-0.564" y="2" relative="1" as="geometry">
            <mxPoint x="12" y="11" as="offset" />
          </mxGeometry>
        </mxCell>
        <mxCell id="X-_IwXTnalUpg8y82jki-68" value="" style="endArrow=classic;html=1;rounded=0;exitX=0;exitY=0.65;exitDx=0;exitDy=0;exitPerimeter=0;entryX=1;entryY=0.5;entryDx=0;entryDy=0;" edge="1" parent="1" source="X-_IwXTnalUpg8y82jki-56" target="X-_IwXTnalUpg8y82jki-69">
          <mxGeometry width="50" height="50" relative="1" as="geometry">
            <mxPoint x="1060" y="580" as="sourcePoint" />
            <mxPoint x="1200" y="560" as="targetPoint" />
          </mxGeometry>
        </mxCell>
        <mxCell id="X-_IwXTnalUpg8y82jki-71" value="&lt;b&gt;Bước 5&lt;/b&gt;" style="edgeLabel;html=1;align=center;verticalAlign=middle;resizable=0;points=[];" vertex="1" connectable="0" parent="X-_IwXTnalUpg8y82jki-68">
          <mxGeometry x="0.0567" y="-1" relative="1" as="geometry">
            <mxPoint x="50" y="-14" as="offset" />
          </mxGeometry>
        </mxCell>
        <mxCell id="X-_IwXTnalUpg8y82jki-72" value="Trả về cho frontend" style="edgeLabel;html=1;align=center;verticalAlign=middle;resizable=0;points=[];" vertex="1" connectable="0" parent="X-_IwXTnalUpg8y82jki-68">
          <mxGeometry x="0.4069" y="1" relative="1" as="geometry">
            <mxPoint x="15" y="-6" as="offset" />
          </mxGeometry>
        </mxCell>
        <mxCell id="X-_IwXTnalUpg8y82jki-69" value="&lt;font style=&quot;font-size: 10px;&quot;&gt;Nhận thông báo thành công , thất bại&lt;br&gt;(show ra)&lt;br&gt;&lt;/font&gt;" style="shape=hexagon;perimeter=hexagonPerimeter2;whiteSpace=wrap;html=1;fixedSize=1;" vertex="1" parent="1">
          <mxGeometry x="1070" y="530" width="120" height="80" as="geometry" />
        </mxCell>
        <mxCell id="X-_IwXTnalUpg8y82jki-73" value="" style="endArrow=classic;html=1;rounded=0;exitX=0.5;exitY=1;exitDx=0;exitDy=0;" edge="1" parent="1" source="X-_IwXTnalUpg8y82jki-8">
          <mxGeometry width="50" height="50" relative="1" as="geometry">
            <mxPoint x="670" y="540" as="sourcePoint" />
            <mxPoint x="720" y="490" as="targetPoint" />
          </mxGeometry>
        </mxCell>
      </root>
    </mxGraphModel>
  </diagram>
</mxfile>
